<svg width="55" height="55" viewBox="0 0 55 55" fill="none" xmlns="http://www.w3.org/2000/svg">
<g clip-path="url(#clip0_17_15)">
<path d="M27.5 -2.40413e-06C12.3122 -3.73189e-06 3.73189e-06 12.3122 2.40413e-06 27.5C1.07636e-06 42.6878 12.3122 55 27.5 55C42.6878 55 55 42.6878 55 27.5C55 12.3122 42.6878 -1.07636e-06 27.5 -2.40413e-06Z" fill="#1ED760"/>
<path d="M21.7 19C21.5143 19 21.3363 19.0737 21.205 19.205C21.0737 19.3363 21 19.5143 21 19.7V36.3C21 36.4857 21.0737 36.6637 21.205 36.795C21.3363 36.9263 21.5143 37 21.7 37H24.3C24.4857 37 24.6637 36.9263 24.795 36.795C24.9262 36.6637 25 36.4857 25 36.3V19.7C25 19.5143 24.9262 19.3363 24.795 19.205C24.6637 19.0737 24.4857 19 24.3 19H21.7ZM31.7 19C31.5143 19 31.3363 19.0737 31.205 19.205C31.0738 19.3363 31 19.5143 31 19.7V36.3C31 36.4857 31.0738 36.6637 31.205 36.795C31.3363 36.9263 31.5143 37 31.7 37H34.3C34.4857 37 34.6637 36.9263 34.795 36.795C34.9263 36.6637 35 36.4857 35 36.3V19.7C35 19.5143 34.9263 19.3363 34.795 19.205C34.6637 19.0737 34.4857 19 34.3 19H31.7Z" fill="black"/>
</g>
<defs>
<clipPath id="clip0_17_15">
<rect width="55" height="55" fill="white"/>
</clipPath>
</defs>
</svg>
