<svg width="56" height="56" viewBox="0 0 56 56" fill="none" xmlns="http://www.w3.org/2000/svg">
<g clip-path="url(#clip0_23_3)">
<mask id="mask0_23_3" style="mask-type:luminance" maskUnits="userSpaceOnUse" x="0" y="0" width="56" height="56">
<path d="M56 0H0V56H56V0Z" fill="white"/>
</mask>
<g mask="url(#mask0_23_3)">
<path d="M28 0C12.5361 -1.3519e-06 1.3519e-06 12.5361 0 28C-1.35191e-06 43.4639 12.5361 56 28 56C43.4639 56 56 43.4639 56 28C56 12.5361 43.4639 1.35191e-06 28 0Z" fill="#1ED760"/>
<path d="M23.469 18.9444L37.2043 26.874C37.3125 26.9366 37.4024 27.0265 37.4648 27.1348C37.5273 27.2431 37.5602 27.366 37.5602 27.491C37.5602 27.616 37.5273 27.7388 37.4648 27.8472C37.4024 27.9555 37.3125 28.0454 37.2043 28.108L23.469 36.0376C23.3607 36.1001 23.2378 36.1331 23.1127 36.1331C22.9876 36.1331 22.8647 36.1002 22.7564 36.0376C22.648 35.9751 22.558 35.8852 22.4955 35.7769C22.4329 35.6685 22.3999 35.5456 22.3999 35.4206V19.5614C22.3999 19.4363 22.4329 19.3134 22.4955 19.2051C22.558 19.0968 22.648 19.0068 22.7564 18.9443C22.8647 18.8818 22.9876 18.8489 23.1127 18.8489C23.2378 18.8489 23.3607 18.8819 23.469 18.9444Z" fill="black"/>
</g>
</g>
<defs>
<clipPath id="clip0_23_3">
<rect width="56" height="56" fill="white"/>
</clipPath>
</defs>
</svg>
