<svg width="55" height="55" viewBox="0 0 55 55" fill="none" xmlns="http://www.w3.org/2000/svg">
<g clip-path="url(#clip0_17_15)">
<path d="M27.5 -2.40413e-06C12.3122 -3.73189e-06 3.73189e-06 12.3122 2.40413e-06 27.5C1.07636e-06 42.6878 12.3122 55 27.5 55C42.6878 55 55 42.6878 55 27.5C55 12.3122 42.6878 -1.07636e-06 27.5 -2.40413e-06Z" fill="#1ED760"/>
<path d="M23 20.713C22.9999 20.59 23.0321 20.4692 23.0935 20.3627C23.1549 20.2562 23.2432 20.1677 23.3497 20.1062C23.4561 20.0447 23.5769 20.0122 23.6998 20.0122C23.8227 20.0122 23.9435 20.0445 24.05 20.106L34.94 26.394C35.0463 26.4555 35.1346 26.5438 35.1959 26.6502C35.2573 26.7565 35.2896 26.8772 35.2896 27C35.2896 27.1228 35.2573 27.2434 35.1959 27.3498C35.1346 27.4562 35.0463 27.5445 34.94 27.606L24.05 33.894C23.9436 33.9554 23.8229 33.9878 23.7001 33.9878C23.5772 33.9878 23.4565 33.9555 23.3501 33.894C23.2437 33.8326 23.1553 33.7443 23.0939 33.6379C23.0324 33.5315 23 33.4108 23 33.288V20.713Z" fill="black"/>
</g>
<defs>
<clipPath id="clip0_17_15">
<rect width="55" height="55" fill="white"/>
</clipPath>
</defs>
</svg>
