<svg width="55" height="55" viewBox="0 0 55 55" fill="none" xmlns="http://www.w3.org/2000/svg">
<g clip-path="url(#clip0_17_15)">
<path d="M27.5 -2.40413e-06C12.3122 -3.73189e-06 3.73189e-06 12.3122 2.40413e-06 27.5C1.07636e-06 42.6878 12.3122 55 27.5 55C42.6878 55 55 42.6878 55 27.5C55 12.3122 42.6878 -1.07636e-06 27.5 -2.40413e-06Z" fill="#1ED760"/>
<path d="M23.05 18.606L36.54 26.394C36.6463 26.4555 36.7346 26.5438 36.7959 26.6502C36.8573 26.7565 36.8896 26.8772 36.8896 27C36.8896 27.1228 36.8573 27.2434 36.7959 27.3498C36.7346 27.4562 36.6463 27.5445 36.54 27.606L23.05 35.394C22.9436 35.4554 22.8229 35.4878 22.7001 35.4878C22.5772 35.4878 22.4565 35.4555 22.3501 35.394C22.2437 35.3326 22.1553 35.2443 22.0939 35.1379C22.0324 35.0315 22 34.9108 22 34.788V19.212C22 19.0891 22.0324 18.9684 22.0939 18.8621C22.1553 18.7557 22.2437 18.6673 22.3501 18.6059C22.4565 18.5445 22.5772 18.5122 22.7001 18.5122C22.8229 18.5122 22.9436 18.5446 23.05 18.606Z" fill="black"/>
</g>
<defs>
<clipPath id="clip0_17_15">
<rect width="55" height="55" fill="white"/>
</clipPath>
</defs>
</svg>
