<svg width="32" height="32" viewBox="0 0 32 32" fill="none" xmlns="http://www.w3.org/2000/svg">
<g clip-path="url(#clip0_16_10)">
<path d="M16 32C24.8366 32 32 24.8366 32 16C32 7.16344 24.8366 0 16 0C7.16344 0 0 7.16344 0 16C0 24.8366 7.16344 32 16 32Z" fill="#121212" fill-opacity="0.25"/>
<path d="M19.0299 8.47007C19.1704 8.6107 19.2493 8.80132 19.2493 9.00007C19.2493 9.19882 19.1704 9.38945 19.0299 9.53007L12.5599 16.0001L19.0299 22.4701C19.1036 22.5387 19.1627 22.6215 19.2037 22.7135C19.2447 22.8055 19.2668 22.9048 19.2685 23.0056C19.2703 23.1063 19.2518 23.2063 19.2141 23.2997C19.1763 23.3931 19.1202 23.4779 19.049 23.5491C18.9778 23.6203 18.8929 23.6765 18.7995 23.7142C18.7062 23.7519 18.6061 23.7704 18.5054 23.7687C18.4047 23.7669 18.3054 23.7448 18.2134 23.7039C18.1214 23.6629 18.0386 23.6038 17.9699 23.5301L10.4399 16.0001L17.9699 8.47007C18.1106 8.32962 18.3012 8.25073 18.4999 8.25073C18.6987 8.25073 18.8893 8.32962 19.0299 8.47007Z" fill="white"/>
</g>
<defs>
<clipPath id="clip0_16_10">
<rect width="32" height="32" fill="white"/>
</clipPath>
</defs>
</svg>
