<svg width="32" height="32" viewBox="0 0 32 32" fill="none" xmlns="http://www.w3.org/2000/svg">
<g clip-path="url(#clip0_16_7)">
<path d="M16 32C24.8366 32 32 24.8366 32 16C32 7.16344 24.8366 0 16 0C7.16344 0 0 7.16344 0 16C0 24.8366 7.16344 32 16 32Z" fill="black" fill-opacity="0.9"/>
<path d="M19.0299 8.46995C19.1704 8.61058 19.2493 8.8012 19.2493 8.99995C19.2493 9.1987 19.1704 9.38933 19.0299 9.52995L12.5599 16L19.0299 22.47C19.1036 22.5386 19.1627 22.6214 19.2037 22.7134C19.2447 22.8054 19.2668 22.9047 19.2685 23.0054C19.2703 23.1061 19.2518 23.2062 19.2141 23.2995C19.1763 23.3929 19.1202 23.4778 19.049 23.549C18.9778 23.6202 18.8929 23.6764 18.7995 23.7141C18.7062 23.7518 18.6061 23.7703 18.5054 23.7685C18.4047 23.7668 18.3054 23.7447 18.2134 23.7037C18.1214 23.6627 18.0386 23.6036 17.9699 23.53L10.4399 16L17.9699 8.46995C18.1106 8.3295 18.3012 8.25061 18.4999 8.25061C18.6987 8.25061 18.8893 8.3295 19.0299 8.46995Z" fill="white"/>
</g>
<defs>
<clipPath id="clip0_16_7">
<rect width="32" height="32" fill="white"/>
</clipPath>
</defs>
</svg>
