<svg width="110" height="36" viewBox="0 0 110 36" fill="none" xmlns="http://www.w3.org/2000/svg">
<path d="M20.0894 27.924C23.5349 22.269 23.8529 12.939 22.1714 7.539C22.075 7.22704 22.0755 6.89321 22.1727 6.58153C22.2699 6.26984 22.4593 5.99492 22.7159 5.793C22.9747 5.58693 23.2878 5.46038 23.6171 5.42869C23.9465 5.39701 24.278 5.46155 24.5714 5.6145C24.9644 5.8185 25.2614 6.1695 25.3934 6.5865C27.3239 12.7845 26.9504 23.0865 22.9859 29.5995C22.8407 29.8327 22.6414 30.0274 22.4049 30.1671C22.1683 30.3068 21.9016 30.3874 21.6273 30.402C21.353 30.4165 21.0792 30.3647 20.8292 30.2508C20.5792 30.137 20.3604 29.9645 20.1914 29.748C20.0594 29.5764 19.9631 29.38 19.9082 29.1706C19.8534 28.9611 19.841 28.7428 19.8719 28.5285C19.9019 28.3155 19.9769 28.1085 20.0894 27.924ZM14.9864 27.738C14.8309 27.6457 14.6952 27.5235 14.5871 27.3786C14.479 27.2337 14.4006 27.0688 14.3563 26.8935C14.3134 26.7185 14.3061 26.5367 14.335 26.3589C14.3639 26.1811 14.4283 26.0109 14.5244 25.8585C17.4989 21.1425 18.3599 13.953 16.6214 8.373C16.541 8.11274 16.5414 7.83422 16.6225 7.57419C16.7036 7.31417 16.8617 7.08485 17.0759 6.9165C17.2918 6.74565 17.5525 6.64087 17.8266 6.61479C18.1008 6.58871 18.3766 6.64244 18.6209 6.7695C18.9478 6.93822 19.1948 7.22939 19.3079 7.5795C21.2924 13.9515 20.3309 21.8745 16.9154 27.2895C16.7149 27.6 16.4017 27.8205 16.0418 27.9045C15.6819 27.9884 15.3035 27.9278 14.9864 27.738ZM10.0858 25.593C9.96088 25.5196 9.85172 25.4222 9.76469 25.3063C9.67766 25.1905 9.61449 25.0585 9.57885 24.918C9.54387 24.7779 9.53766 24.6321 9.56061 24.4896C9.58355 24.347 9.63518 24.2106 9.71235 24.0885C12.2954 19.9665 12.8789 14.7825 11.4464 8.6745C11.3969 8.46201 11.4132 8.23952 11.493 8.03649C11.5729 7.83345 11.7125 7.65945 11.8934 7.5375C12.0133 7.45462 12.1484 7.39601 12.2909 7.365C12.5796 7.29911 12.8826 7.34863 13.1354 7.503C13.2596 7.57875 13.3677 7.6783 13.4535 7.79594C13.5392 7.91358 13.6008 8.04698 13.6349 8.1885C15.2024 14.871 14.5273 20.604 11.6278 25.23C11.4673 25.4777 11.217 25.6537 10.9296 25.7211C10.6422 25.7885 10.3398 25.7436 10.0858 25.593ZM36.0479 17.544C36.0479 7.8555 27.9884 0 18.0479 0C8.10585 0 0.0478516 7.854 0.0478516 17.5455C0.0478516 27.2355 8.10585 35.0925 18.0479 35.0925C27.9884 35.0925 36.0479 27.2355 36.0479 17.544ZM66.4861 23.3557C64.5406 23.3557 63.0751 21.7537 63.0751 19.6267C63.0751 17.4937 64.4896 15.9443 66.4411 15.9443C68.3986 15.9443 69.8731 17.5477 69.8731 19.6747C69.8731 21.8077 68.4496 23.3557 66.4861 23.3557ZM66.4861 13.0987C62.8291 13.0987 59.9656 15.9878 59.9656 19.6733C59.9656 23.3212 62.8096 26.1803 66.4411 26.1803C70.1086 26.1803 72.9811 23.3002 72.9811 19.6267C72.9811 15.9667 70.1296 13.0987 66.4861 13.0987ZM80.7886 13.3537H77.8036V10.2217C77.8042 10.182 77.7932 10.1429 77.7718 10.1093C77.7505 10.0757 77.7199 10.0491 77.6836 10.0327C77.6589 10.0225 77.6324 10.0173 77.6056 10.0177H74.8921C74.8395 10.0186 74.7894 10.0401 74.7526 10.0777C74.7158 10.116 74.6953 10.1671 74.6956 10.2202V13.3507H73.3906C73.3508 13.351 73.3119 13.3633 73.2793 13.386C73.2466 13.4088 73.2216 13.441 73.2076 13.4782C73.1977 13.503 73.1926 13.5295 73.1926 13.5562V15.9487C73.1926 16.0597 73.2826 16.1512 73.3906 16.1512H74.6956V22.3403C74.6956 24.8408 75.9091 26.1097 78.3016 26.1097C79.2736 26.1097 80.0806 25.9027 80.8426 25.4587C80.8733 25.4409 80.8987 25.4152 80.9163 25.3844C80.934 25.3536 80.9432 25.3187 80.9431 25.2833V23.0063C80.943 22.9719 80.9343 22.9381 80.9178 22.908C80.9013 22.8778 80.8775 22.8523 80.8486 22.8337C80.8199 22.8155 80.787 22.8051 80.7531 22.8035C80.7191 22.8019 80.6853 22.8093 80.6551 22.8247C80.1316 23.0947 79.6276 23.2192 79.0636 23.2192C78.1936 23.2192 77.8036 22.8128 77.8036 21.9053V16.1512H80.7886C80.8149 16.1513 80.841 16.146 80.8652 16.1357C80.8895 16.1254 80.9114 16.1103 80.9296 16.0912C80.9673 16.0528 80.9884 16.0011 80.9881 15.9473V13.5547C80.9882 13.5009 80.9672 13.4492 80.9296 13.4107C80.9113 13.3919 80.8894 13.3769 80.8651 13.3666C80.8409 13.3563 80.8149 13.3509 80.7886 13.3507V13.3537ZM91.1896 13.3642V12.9817C91.1896 11.8492 91.6111 11.3437 92.5606 11.3437C93.1246 11.3437 93.5806 11.4592 94.0891 11.6347C94.1188 11.6443 94.1505 11.6466 94.1813 11.6413C94.2121 11.6361 94.2412 11.6236 94.2661 11.6047C94.2922 11.5859 94.3135 11.5611 94.3281 11.5324C94.3427 11.5037 94.3502 11.4719 94.3501 11.4397V9.09375C94.3503 9.05014 94.3367 9.00758 94.3111 8.97225C94.2861 8.93684 94.2503 8.91051 94.2091 8.89725C93.4801 8.66972 92.7198 8.55836 91.9561 8.56725C89.4511 8.56725 88.1251 10.0147 88.1251 12.7492V13.3387H86.8201C86.794 13.3391 86.7683 13.3445 86.7444 13.3548C86.7204 13.3651 86.6988 13.3801 86.6806 13.3987C86.6434 13.4374 86.6229 13.4891 86.6236 13.5427V15.9473C86.6236 16.0598 86.7121 16.1512 86.8216 16.1512H88.1266V25.6973C88.1266 25.8098 88.2136 25.8997 88.3231 25.8997H91.0366C91.1446 25.8997 91.2331 25.8098 91.2331 25.6973V16.1512H93.7681L97.6471 25.6942C97.2061 26.6977 96.7726 26.8972 96.1816 26.8972C95.7031 26.8972 95.2006 26.7502 94.6846 26.4622C94.6608 26.4491 94.6345 26.441 94.6074 26.4385C94.5803 26.4359 94.553 26.4389 94.5271 26.4473C94.5013 26.4564 94.4777 26.4707 94.4575 26.4893C94.4374 26.5078 94.4213 26.5303 94.4101 26.5553L93.4921 28.6252C93.4711 28.6716 93.468 28.7242 93.4836 28.7727C93.4991 28.8212 93.5321 28.8622 93.5761 28.8878C94.4549 29.4003 95.4568 29.6637 96.4741 29.6497C98.4751 29.6497 99.5836 28.6928 100.56 26.1173L105.266 13.6418C105.277 13.6108 105.281 13.5776 105.278 13.5447C105.274 13.5119 105.263 13.4804 105.245 13.4527C105.227 13.4256 105.203 13.4032 105.175 13.3875C105.147 13.3718 105.115 13.3633 105.083 13.3628H102.258C102.216 13.3627 102.175 13.376 102.141 13.4008C102.107 13.4257 102.082 13.4606 102.069 13.5007L99.1771 21.9772L96.0106 13.4963C95.9968 13.4579 95.9716 13.4246 95.9383 13.401C95.9051 13.3774 95.8654 13.3646 95.8246 13.3642H91.1896ZM85.1596 13.3523H82.4461C82.4199 13.3528 82.3941 13.3585 82.3702 13.369C82.3462 13.3796 82.3246 13.3948 82.3066 13.4137C82.2694 13.4524 82.2489 13.5041 82.2496 13.5577V25.6987C82.2496 25.8112 82.3396 25.9012 82.4476 25.9012H85.1611C85.2691 25.9012 85.3576 25.8112 85.3576 25.6987V13.5562C85.3583 13.5026 85.3378 13.4509 85.3006 13.4123C85.2822 13.3934 85.2603 13.3785 85.2361 13.3682C85.2119 13.3579 85.1859 13.3525 85.1596 13.3523ZM83.8156 7.82475C83.5582 7.82678 83.3038 7.87995 83.0672 7.98115C82.8305 8.08235 82.6164 8.22957 82.4371 8.41425C82.0726 8.78925 81.8686 9.29325 81.8716 9.81975C81.8695 10.3445 82.0724 10.8494 82.4371 11.2267C82.617 11.411 82.8315 11.5579 83.0683 11.6591C83.3051 11.7603 83.5596 11.8137 83.8171 11.8162C84.3361 11.8132 84.8326 11.6017 85.1971 11.2267C85.5616 10.8517 85.7656 10.3462 85.7626 9.81975C85.7626 8.71725 84.8911 7.82475 83.8186 7.82475H83.8156ZM107.693 14.5597H107.196V15.2107H107.693C107.94 15.2107 108.089 15.0862 108.089 14.8867C108.089 14.6737 107.94 14.5612 107.693 14.5612V14.5597ZM108.015 15.4882L108.555 16.2638H108.099L107.615 15.5527H107.196V16.2638H106.815V14.2087H107.708C108.173 14.2087 108.48 14.4533 108.48 14.8628C108.486 15.0046 108.443 15.1441 108.359 15.258C108.274 15.372 108.153 15.4532 108.015 15.4882ZM107.592 13.5232C106.614 13.5232 105.873 14.3213 105.873 15.2978C105.873 16.2728 106.608 17.0602 107.582 17.0602C108.56 17.0602 109.302 16.2622 109.302 15.2857C109.302 14.3107 108.564 13.5247 107.592 13.5247V13.5232ZM107.582 17.2552C107.329 17.255 107.078 17.2039 106.845 17.1049C106.612 17.006 106.401 16.8612 106.226 16.6792C105.866 16.3105 105.668 15.8142 105.674 15.2992C105.674 14.2237 106.518 13.3282 107.592 13.3282C107.845 13.3287 108.095 13.3799 108.328 13.4789C108.56 13.5778 108.771 13.7225 108.947 13.9042C109.125 14.0868 109.266 14.3028 109.361 14.5399C109.456 14.7769 109.503 15.0304 109.5 15.2857C109.5 16.3612 108.656 17.2568 107.582 17.2568V17.2552Z" fill="white"/>
<path d="M58.9762 26H55.7122V14.072L50.8162 26H48.0562L43.1602 14.168V26H39.9922V8.98401H44.3602L49.4722 21.272L54.4642 8.98401H58.9762V26Z" fill="white"/>
</svg>
