<svg width="117" height="36" viewBox="0 0 117 36" fill="none" xmlns="http://www.w3.org/2000/svg">
<path d="M21.0894 27.924C24.5349 22.269 24.8529 12.939 23.1714 7.539C23.075 7.22704 23.0755 6.89321 23.1727 6.58153C23.2699 6.26984 23.4593 5.99492 23.7159 5.793C23.9747 5.58693 24.2878 5.46038 24.6171 5.42869C24.9465 5.39701 25.278 5.46155 25.5714 5.6145C25.9644 5.8185 26.2614 6.1695 26.3934 6.5865C28.3239 12.7845 27.9504 23.0865 23.9859 29.5995C23.8407 29.8327 23.6414 30.0274 23.4049 30.1671C23.1683 30.3068 22.9016 30.3874 22.6273 30.402C22.353 30.4165 22.0792 30.3647 21.8292 30.2508C21.5792 30.137 21.3604 29.9645 21.1914 29.748C21.0594 29.5764 20.9631 29.38 20.9082 29.1706C20.8534 28.9611 20.841 28.7428 20.8719 28.5285C20.9019 28.3155 20.9769 28.1085 21.0894 27.924ZM15.9864 27.738C15.8309 27.6457 15.6952 27.5235 15.5871 27.3786C15.479 27.2337 15.4006 27.0688 15.3563 26.8935C15.3134 26.7185 15.3061 26.5367 15.335 26.3589C15.3639 26.1811 15.4283 26.0109 15.5244 25.8585C18.4989 21.1425 19.3599 13.953 17.6214 8.373C17.541 8.11274 17.5414 7.83422 17.6225 7.57419C17.7036 7.31417 17.8617 7.08485 18.0759 6.9165C18.2918 6.74565 18.5525 6.64087 18.8266 6.61479C19.1008 6.58871 19.3766 6.64244 19.6209 6.7695C19.9478 6.93822 20.1948 7.22939 20.3079 7.5795C22.2924 13.9515 21.3309 21.8745 17.9154 27.2895C17.7149 27.6 17.4017 27.8205 17.0418 27.9045C16.6819 27.9884 16.3035 27.9278 15.9864 27.738ZM11.0858 25.593C10.9609 25.5196 10.8517 25.4222 10.7647 25.3063C10.6777 25.1905 10.6145 25.0585 10.5789 24.918C10.5439 24.7779 10.5377 24.6321 10.5606 24.4896C10.5836 24.347 10.6352 24.2106 10.7124 24.0885C13.2954 19.9665 13.8789 14.7825 12.4464 8.6745C12.3969 8.46201 12.4132 8.23952 12.493 8.03649C12.5729 7.83345 12.7125 7.65945 12.8934 7.5375C13.0133 7.45462 13.1484 7.39601 13.2909 7.365C13.5796 7.29911 13.8826 7.34863 14.1354 7.503C14.2596 7.57875 14.3677 7.6783 14.4535 7.79594C14.5392 7.91358 14.6008 8.04698 14.6349 8.1885C16.2024 14.871 15.5273 20.604 12.6278 25.23C12.4673 25.4777 12.217 25.6537 11.9296 25.7211C11.6422 25.7885 11.3398 25.7436 11.0858 25.593ZM37.0479 17.544C37.0479 7.8555 28.9884 0 19.0479 0C9.10585 0 1.04785 7.854 1.04785 17.5455C1.04785 27.2355 9.10585 35.0925 19.0479 35.0925C28.9884 35.0925 37.0479 27.2355 37.0479 17.544ZM68.4861 23.3557C66.5406 23.3557 65.0751 21.7537 65.0751 19.6267C65.0751 17.4937 66.4896 15.9443 68.4411 15.9443C70.3986 15.9443 71.8731 17.5477 71.8731 19.6747C71.8731 21.8077 70.4496 23.3557 68.4861 23.3557ZM68.4861 13.0987C64.8291 13.0987 61.9656 15.9878 61.9656 19.6733C61.9656 23.3212 64.8096 26.1803 68.4411 26.1803C72.1086 26.1803 74.9811 23.3002 74.9811 19.6267C74.9811 15.9667 72.1296 13.0987 68.4861 13.0987ZM82.7886 13.3537H79.8036V10.2217C79.8042 10.182 79.7932 10.1429 79.7718 10.1093C79.7505 10.0757 79.7199 10.0491 79.6836 10.0327C79.6589 10.0225 79.6324 10.0173 79.6056 10.0177H76.8921C76.8395 10.0186 76.7894 10.0401 76.7526 10.0777C76.7158 10.116 76.6953 10.1671 76.6956 10.2202V13.3507H75.3906C75.3508 13.351 75.3119 13.3633 75.2793 13.386C75.2466 13.4088 75.2216 13.441 75.2076 13.4782C75.1977 13.503 75.1926 13.5295 75.1926 13.5562V15.9487C75.1926 16.0597 75.2826 16.1512 75.3906 16.1512H76.6956V22.3403C76.6956 24.8408 77.9091 26.1097 80.3016 26.1097C81.2736 26.1097 82.0806 25.9027 82.8426 25.4587C82.8733 25.4409 82.8987 25.4152 82.9163 25.3844C82.934 25.3536 82.9432 25.3187 82.9431 25.2833V23.0063C82.943 22.9719 82.9343 22.9381 82.9178 22.908C82.9013 22.8778 82.8775 22.8523 82.8486 22.8337C82.8199 22.8155 82.787 22.8051 82.7531 22.8035C82.7191 22.8019 82.6853 22.8093 82.6551 22.8247C82.1316 23.0947 81.6276 23.2192 81.0636 23.2192C80.1936 23.2192 79.8036 22.8128 79.8036 21.9053V16.1512H82.7886C82.8149 16.1513 82.841 16.146 82.8652 16.1357C82.8895 16.1254 82.9114 16.1103 82.9296 16.0912C82.9673 16.0528 82.9884 16.0011 82.9881 15.9473V13.5547C82.9882 13.5009 82.9672 13.4492 82.9296 13.4107C82.9113 13.3919 82.8894 13.3769 82.8651 13.3666C82.8409 13.3563 82.8149 13.3509 82.7886 13.3507V13.3537ZM93.1896 13.3642V12.9817C93.1896 11.8492 93.6111 11.3437 94.5606 11.3437C95.1246 11.3437 95.5806 11.4592 96.0891 11.6347C96.1188 11.6443 96.1505 11.6466 96.1813 11.6413C96.2121 11.6361 96.2412 11.6236 96.2661 11.6047C96.2922 11.5859 96.3135 11.5611 96.3281 11.5324C96.3427 11.5037 96.3502 11.4719 96.3501 11.4397V9.09375C96.3503 9.05014 96.3367 9.00758 96.3111 8.97225C96.2861 8.93684 96.2503 8.91051 96.2091 8.89725C95.4801 8.66972 94.7198 8.55836 93.9561 8.56725C91.4511 8.56725 90.1251 10.0147 90.1251 12.7492V13.3387H88.8201C88.794 13.3391 88.7683 13.3445 88.7444 13.3548C88.7204 13.3651 88.6988 13.3801 88.6806 13.3987C88.6434 13.4374 88.6229 13.4891 88.6236 13.5427V15.9473C88.6236 16.0598 88.7121 16.1512 88.8216 16.1512H90.1266V25.6973C90.1266 25.8098 90.2136 25.8997 90.3231 25.8997H93.0366C93.1446 25.8997 93.2331 25.8098 93.2331 25.6973V16.1512H95.7681L99.6471 25.6942C99.2061 26.6977 98.7726 26.8972 98.1816 26.8972C97.7031 26.8972 97.2006 26.7502 96.6846 26.4622C96.6608 26.4491 96.6345 26.441 96.6074 26.4385C96.5803 26.4359 96.553 26.4389 96.5271 26.4473C96.5013 26.4564 96.4777 26.4707 96.4575 26.4893C96.4374 26.5078 96.4213 26.5303 96.4101 26.5553L95.4921 28.6252C95.4711 28.6716 95.468 28.7242 95.4836 28.7727C95.4991 28.8212 95.5321 28.8622 95.5761 28.8878C96.4549 29.4003 97.4568 29.6637 98.4741 29.6497C100.475 29.6497 101.584 28.6928 102.56 26.1173L107.266 13.6418C107.277 13.6108 107.281 13.5776 107.278 13.5447C107.274 13.5119 107.263 13.4804 107.245 13.4527C107.227 13.4256 107.203 13.4032 107.175 13.3875C107.147 13.3718 107.115 13.3633 107.083 13.3628H104.258C104.216 13.3627 104.175 13.376 104.141 13.4008C104.107 13.4257 104.082 13.4606 104.069 13.5007L101.177 21.9772L98.0106 13.4963C97.9968 13.4579 97.9716 13.4246 97.9383 13.401C97.9051 13.3774 97.8654 13.3646 97.8246 13.3642H93.1896ZM87.1596 13.3523H84.4461C84.4199 13.3528 84.3941 13.3585 84.3702 13.369C84.3462 13.3796 84.3246 13.3948 84.3066 13.4137C84.2694 13.4524 84.2489 13.5041 84.2496 13.5577V25.6987C84.2496 25.8112 84.3396 25.9012 84.4476 25.9012H87.1611C87.2691 25.9012 87.3576 25.8112 87.3576 25.6987V13.5562C87.3583 13.5026 87.3378 13.4509 87.3006 13.4123C87.2822 13.3934 87.2603 13.3785 87.2361 13.3682C87.2119 13.3579 87.1859 13.3525 87.1596 13.3523ZM85.8156 7.82475C85.5582 7.82678 85.3038 7.87995 85.0672 7.98115C84.8305 8.08235 84.6164 8.22957 84.4371 8.41425C84.0726 8.78925 83.8686 9.29325 83.8716 9.81975C83.8695 10.3445 84.0724 10.8494 84.4371 11.2267C84.617 11.411 84.8315 11.5579 85.0683 11.6591C85.3051 11.7603 85.5596 11.8137 85.8171 11.8162C86.3361 11.8132 86.8326 11.6017 87.1971 11.2267C87.5616 10.8517 87.7656 10.3462 87.7626 9.81975C87.7626 8.71725 86.8911 7.82475 85.8186 7.82475H85.8156ZM109.693 14.5597H109.196V15.2107H109.693C109.94 15.2107 110.089 15.0862 110.089 14.8867C110.089 14.6737 109.94 14.5612 109.693 14.5612V14.5597ZM110.015 15.4882L110.555 16.2638H110.099L109.615 15.5527H109.196V16.2638H108.815V14.2087H109.708C110.173 14.2087 110.48 14.4533 110.48 14.8628C110.486 15.0046 110.443 15.1441 110.359 15.258C110.274 15.372 110.153 15.4532 110.015 15.4882ZM109.592 13.5232C108.614 13.5232 107.873 14.3213 107.873 15.2978C107.873 16.2728 108.608 17.0602 109.582 17.0602C110.56 17.0602 111.302 16.2622 111.302 15.2857C111.302 14.3107 110.564 13.5247 109.592 13.5247V13.5232ZM109.582 17.2552C109.329 17.255 109.078 17.2039 108.845 17.1049C108.612 17.006 108.401 16.8612 108.226 16.6792C107.866 16.3105 107.668 15.8142 107.674 15.2992C107.674 14.2237 108.518 13.3282 109.592 13.3282C109.845 13.3287 110.095 13.3799 110.328 13.4789C110.56 13.5778 110.771 13.7225 110.947 13.9042C111.125 14.0868 111.266 14.3028 111.361 14.5399C111.456 14.7769 111.503 15.0304 111.5 15.2857C111.5 16.3612 110.656 17.2568 109.582 17.2568V17.2552Z" fill="white"/>
<path d="M60.9762 26H57.7122V14.072L52.8162 26H50.0562L45.1602 14.168V26H41.9922V8.98401H46.3602L51.4722 21.272L56.4642 8.98401H60.9762V26Z" fill="white"/>
</svg>
