<svg width="24" height="24" viewBox="0 0 24 24" fill="none" xmlns="http://www.w3.org/2000/svg">
<path d="M2.79279 8.04306C2.98031 7.85559 3.23462 7.75028 3.49979 7.75028C3.76495 7.75028 4.01926 7.85559 4.20679 8.04306L11.9998 15.8361L19.7928 8.04306C19.885 7.94755 19.9954 7.87137 20.1174 7.81896C20.2394 7.76655 20.3706 7.73897 20.5034 7.73781C20.6362 7.73666 20.7678 7.76196 20.8907 7.81224C21.0136 7.86252 21.1253 7.93677 21.2192 8.03067C21.3131 8.12456 21.3873 8.23621 21.4376 8.35911C21.4879 8.482 21.5132 8.61368 21.512 8.74646C21.5109 8.87924 21.4833 9.01046 21.4309 9.13247C21.3785 9.25447 21.3023 9.36481 21.2068 9.45706L11.9998 18.6641L2.79279 9.45706C2.60531 9.26953 2.5 9.01523 2.5 8.75006C2.5 8.4849 2.60531 8.23059 2.79279 8.04306Z" fill="white" fill-opacity="0.7"/>
</svg>
