<svg width="16" height="16" viewBox="0 0 16 16" fill="none" xmlns="http://www.w3.org/2000/svg">
<g clip-path="url(#clip0_17_28)">
<path d="M8 1.5C6.27609 1.5 4.62279 2.18482 3.40381 3.40381C2.18482 4.62279 1.5 6.27609 1.5 8C1.5 9.72391 2.18482 11.3772 3.40381 12.5962C4.62279 13.8152 6.27609 14.5 8 14.5C9.72391 14.5 11.3772 13.8152 12.5962 12.5962C13.8152 11.3772 14.5 9.72391 14.5 8C14.5 6.27609 13.8152 4.62279 12.5962 3.40381C11.3772 2.18482 9.72391 1.5 8 1.5ZM0 8C0 5.87827 0.842855 3.84344 2.34315 2.34315C3.84344 0.842855 5.87827 0 8 0C10.1217 0 12.1566 0.842855 13.6569 2.34315C15.1571 3.84344 16 5.87827 16 8C16 10.1217 15.1571 12.1566 13.6569 13.6569C12.1566 15.1571 10.1217 16 8 16C5.87827 16 3.84344 15.1571 2.34315 13.6569C0.842855 12.1566 0 10.1217 0 8Z" fill="#A7A7A7"/>
<path d="M8 3.25C8.19891 3.25 8.38968 3.32902 8.53033 3.46967C8.67098 3.61032 8.75 3.80109 8.75 4V7.25H11C11.1989 7.25 11.3897 7.32902 11.5303 7.46967C11.671 7.61032 11.75 7.80109 11.75 8C11.75 8.19891 11.671 8.38968 11.5303 8.53033C11.3897 8.67098 11.1989 8.75 11 8.75H7.25V4C7.25 3.80109 7.32902 3.61032 7.46967 3.46967C7.61032 3.32902 7.80109 3.25 8 3.25Z" fill="#A7A7A7"/>
</g>
<defs>
<clipPath id="clip0_17_28">
<rect width="16" height="16" fill="white"/>
</clipPath>
</defs>
</svg>
